<svg width="30" height="30" xmlns="http://www.w3.org/2000/svg" xmlns:xlink="http://www.w3.org/1999/xlink" overflow="hidden"><defs><clipPath id="clip0"><rect x="1202" y="28" width="30" height="30"/></clipPath></defs><g clip-path="url(#clip0)" transform="translate(-1202 -28)"><path d="M1228.72 51.625 1224.81 47.7188C1224.28 47.1875 1223.56 47 1222.88 47.125L1221.5 45.75C1222.72 44.1875 1223.44 42.1875 1223.44 40.0625 1223.44 34.9062 1219.22 30.6875 1214.06 30.6875 1208.91 30.6875 1204.69 34.9062 1204.69 40.0625 1204.69 45.2188 1208.91 49.4375 1214.06 49.4375 1216.19 49.4375 1218.16 48.7188 1219.75 47.5L1221.12 48.875C1221 49.5625 1221.19 50.2812 1221.72 50.8125L1225.62 54.7188C1226.06 55.1562 1226.62 55.375 1227.19 55.375 1227.75 55.375 1228.31 55.1562 1228.75 54.7188 1229.56 53.8438 1229.56 52.4688 1228.72 51.625ZM1214.03 47.5312C1209.91 47.5312 1206.53 44.1562 1206.53 40.0312 1206.53 35.9062 1209.91 32.5312 1214.03 32.5312 1218.16 32.5312 1221.53 35.9062 1221.53 40.0312 1221.53 44.1562 1218.16 47.5312 1214.03 47.5312Z" fill="#FFFFFF"/></g></svg>